HIERARCHY
ROOT Hips
{
  OFFSET 38.9147 91.8337 -60.2866
  CHANNELS 6 Xposition Yposition Zposition Zrotation Xrotation Yrotation
  JOINT ToSpine
  {
    OFFSET -2.69724 7.43032 -0.144315
    CHANNELS 3 Zrotation Xrotation Yrotation
    JOINT Spine
    {
      OFFSET -0.0310711 10.7595 1.96963
      CHANNELS 3 Zrotation Xrotation Yrotation
      JOINT Spine1
      {
        OFFSET 19.9056 3.91189 0.764692
        CHANNELS 3 Zrotation Xrotation Yrotation
        JOINT Neck
        {
          OFFSET 25.9749 7.03908 -0.130764
          CHANNELS 3 Zrotation Xrotation Yrotation
          JOINT Head
          {
            OFFSET 9.52751 0.295786 -0.907742
            CHANNELS 3 Zrotation Xrotation Yrotation
            End Site
            {
              OFFSET 16.4037 0.713936 2.7358
            }
          }
        }
        JOINT LeftShoulder
        {
          OFFSET 17.7449 4.33886 11.7777
          CHANNELS 3 Zrotation Xrotation Yrotation
          JOINT LeftArm
          {
            OFFSET 0.911315 1.27913 9.80584
            CHANNELS 3 Zrotation Xrotation Yrotation
            JOINT LeftForeArm
            {
              OFFSET 28.6126 1.18197 -3.53199
              CHANNELS 3 Zrotation Xrotation Yrotation
              JOINT LeftHand
              {
                OFFSET 27.5088 0.0218783 0.327423
                CHANNELS 3 Zrotation Xrotation Yrotation
                End Site
                {
                  OFFSET 18.6038 -0.000155887 0.382096
                }
              }
            }
          }
        }
        JOINT RightShoulder
        {
          OFFSET 17.1009 2.89543 -12.2328
          CHANNELS 3 Zrotation Xrotation Yrotation
          JOINT RightArm
          {
            OFFSET 1.4228 0.178766 -10.211
            CHANNELS 3 Zrotation Xrotation Yrotation
            JOINT RightForeArm
            {
              OFFSET 28.733 1.87905 2.64907
              CHANNELS 3 Zrotation Xrotation Yrotation
              JOINT RightHand
              {
                OFFSET 27.4588 0.290562 -0.101845
                CHANNELS 3 Zrotation Xrotation Yrotation
                End Site
                {
                  OFFSET 17.8396 -0.255518 -0.000602873
                }
              }
            }
          }
        }
      }
    }
  }
  JOINT LeftUpLeg
  {
    OFFSET -5.61296 -2.22332 -10.2353
    CHANNELS 3 Zrotation Xrotation Yrotation
    JOINT LeftLeg
    {
      OFFSET 2.56703 -44.7417 -7.93097
      CHANNELS 3 Zrotation Xrotation Yrotation
      JOINT LeftFoot
      {
        OFFSET 3.16933 -46.5642 -3.96578
        CHANNELS 3 Zrotation Xrotation Yrotation
        JOINT LeftToeBase
        {
          OFFSET 0.346054 -6.02161 12.8035
          CHANNELS 3 Zrotation Xrotation Yrotation
          End Site
          {
            OFFSET 0.134235 -1.35082 5.13018
          }
        }
      }
    }
  }
  JOINT RightUpLeg
  {
    OFFSET -5.7928 -1.72406 10.6446
    CHANNELS 3 Zrotation Xrotation Yrotation
    JOINT RightLeg
    {
      OFFSET -2.57161 -44.7178 -7.85259
      CHANNELS 3 Zrotation Xrotation Yrotation
      JOINT RightFoot
      {
        OFFSET -3.10148 -46.5936 -4.03391
        CHANNELS 3 Zrotation Xrotation Yrotation
        JOINT RightToeBase
        {
          OFFSET -0.0828122 -6.13587 12.8035
          CHANNELS 3 Zrotation Xrotation Yrotation
          End Site
          {
            OFFSET -0.131328 -1.35082 5.13018
          }
        }
      }
    }
  }
}
MOTION
Frames:	15
Frame Time:	0.0333333
-281.337 81.8648 295.567 72.1007 25.1782 16.5498 -70.1915 0 88.8779 122.932 76.3801 -30.8541 5.02007 28.7836 2.98903 -154.761 17.5731 177.964 -157.103 55.7914 173.749 3.49617 5.21398 -27.7197 -74.9669 33.4614 -121.695 23.1162 2.85452 -82.9885 21.582 -5.80186 -27.6619 0.207622 -0.155002 22.8867 -44.8871 -65.9721 77.6337 5.89757 -5.74757 27.5533 -13.776 1.47484 -11.9902 -96.492 11.1636 132.545 -4.49676 43.0294 -34.3438 1.67531 5.16236 -0.0206234 -5.47606 -19.5345 8.89141 1.77132 34.0908 87.5403 22.5008 82.8398 -24.0677 -7.16571 -4.04509 1.07661 8.43754 -18.7769 -8.17756 
-270.715 82.5191 282.594 70.3321 30.5061 16.1155 -70.1915 0 88.8779 107.396 74.5053 -16.4378 9.16114 26.5347 1.54763 -156.114 17.0302 177.355 -155.059 54.7355 170.204 3.2263 5.29143 -25.6717 -77.2215 35.9942 -118.052 16.0254 1.6607 -84.2652 12.6484 -1.10225 -8.02861 0.166487 0.324144 21.8267 -54.4804 -66.5355 69.72 5.55269 -4.62818 30.1876 -1.41506 -0.0443989 2.15869 -91.5931 1.76899 105.456 -3.29588 48.4113 -8.07264 6.06394 11.2398 -0.626728 -7.6126 -34.2944 17.0609 -2.69432 26.6421 90.0812 3.0124 58.4514 -3.17548 -6.26767 3.84319 0.866618 7.75101 -19.8179 -3.14912 
-261.053 82.6987 270.344 71.097 38.26 16.7249 -70.1915 0 88.8779 109.018 70.5157 -17.2729 12.1267 22.9157 -0.913084 -154.802 16.7103 175.478 -150.955 53.7376 168.987 3.04996 4.95893 -24.7035 -79.6109 37.3511 -112.232 15.0521 3.27224 -76.917 21.3595 -1.80084 -7.70713 0.0725929 1.11375 23.1885 -57.898 -64.6735 71.2538 2.92323 -0.162145 31.1739 -0.858346 -0.0240031 1.52945 -81.2661 4.87391 96.6853 -11.8958 75.0587 5.73541 5.73166 6.97661 -0.648729 -7.93957 -35.1729 14.7565 -8.29088 16.7444 84.6402 2.24091 52.8105 -2.37372 -3.6324 3.0931 0.488085 -0.0365469 -2.77358 2.5804 
-251.766 81.7716 259.182 72.5445 46.9151 16.0381 -70.1915 0 88.8779 114.843 67.2591 -25.5629 12.5095 19.5698 0.910313 -153.443 17.512 174.568 -149.591 54.5924 170.221 3.0666 3.47245 -26.4441 -79.9789 34.8884 -107.512 7.59007 3.04692 -62.9048 93.1189 9.17873 10.358 0.0036391 1.50753 24.6925 -56.8799 -61.1363 80.0664 -0.622249 5.60796 31.4629 -0.408596 -0.0178151 1.66575 -63.7287 5.65068 88.6439 -161.32 76.5611 159.924 6.6295 5.57528 -0.830499 -9.53107 -40.7983 10.0457 -10.3773 6.27419 78.6111 8.11867 71.3768 -3.99085 -4.63217 -6.29537 0.926829 3.22851 19.8333 -18.0729 
-242.355 80.8405 248.298 79.2736 47.2382 17.2051 -70.1915 0 88.8779 133.985 64.7926 -37.9376 13.2395 20.7705 1.08333 -152.756 19.5741 172.647 -143.898 55.7486 167.214 2.59035 -0.89535 -28.4195 -77.2799 31.6854 -104.636 11.2719 8.24197 -48.5396 10.4318 -0.859415 -7.48315 0.0828636 0.692599 26.2928 -57.2159 -53.6883 90.0465 -1.24341 6.40942 32.2533 -0.425072 -0.0211282 1.99513 -44.1496 8.23998 80.379 -169.377 60.4296 168.176 8.55465 4.50794 -1.15176 -9.28005 -41.273 12.1613 -17.4648 8.38723 72.7068 29.6548 82.5477 -20.1946 -5.17385 -2.26363 0.856759 8.6413 -5.39853 -20.9504 
-230.664 80.8558 234.942 80.6074 47.0449 16.3901 -70.1915 0 88.8779 136.298 65.8669 -40.3728 11.8049 21.7142 2.99294 -152.597 20.1112 171.307 -143.795 55.9237 163.978 2.55154 -0.851094 -27.8699 -67.0026 30.4083 -108.279 6.75269 6.3048 -36.5267 9.1419 -0.680934 -6.59722 0.0677873 1.23653 22.6713 -59.4304 -51.3737 95.4896 -0.625734 4.56275 36.3306 0.866027 0.00929987 3.84643 -26.2234 2.5794 76.4794 -168.361 63.0123 164.613 6.39959 4.04173 -0.817036 -9.65786 -41.8771 10.6186 -29.0639 7.35794 71.2683 87.6876 85.6422 -74.0043 -7.33626 -2.7869 1.08185 10.8085 -22.2904 -15.6232 
-219.5 82.2497 221.947 81.1666 46.1828 11.0253 -70.1915 0 88.8779 130.916 69.0506 -38.4882 11.0558 23.0816 0.544683 -147.762 20.1735 168.694 -145.754 57.1792 167.557 2.38946 -1.47889 -27.0804 -59.6986 29.0294 -107.731 7.27684 8.66724 -30.5911 9.353 -0.817376 -8.01678 0.0404 1.63641 21.9963 -61.0045 -50.5149 97.0677 -0.942627 4.34421 39.7146 0.550605 -0.00281339 4.65103 -15.2654 -2.97054 81.3142 -156.361 80.7703 158.643 5.31063 5.39387 -0.61355 -8.9341 -42.331 15.2328 -40.6996 1.86893 75.4056 123.802 84.5506 -110.064 -7.7773 -9.5553 1.15072 5.33467 -10.7139 -5.67654 
-208.116 85.0128 209.832 85.6241 43.4047 5.38172 -70.1915 0 88.8779 133.541 70.3256 -42.3454 11.927 24.9299 -3.95138 -143.858 19.2645 165.72 -145.563 56.7803 167.852 1.94218 -3.65347 -25.1352 -58.3914 30.7132 -103.15 6.88986 8.6688 -28.5664 15.455 -1.38904 -8.34072 0.02172 1.77222 22.2779 -57.7677 -50.8374 99.7946 -1.76255 5.25832 40.0825 0.269779 -0.0168253 5.20441 -17.1748 -2.2143 83.8199 -8.26417 72.9248 8.5987 3.00309 8.58791 -0.0843856 -8.37832 -38.269 14.8897 -51.3866 2.50694 82.0039 102.997 85.8784 -94.3418 -6.02451 -3.14847 0.96052 -14.9225 10.6282 22.5236 
-196.112 86.5933 198.338 87.7081 40.2432 2.27513 -70.1915 0 88.8779 131.17 72.62 -42.6872 13.8041 25.9395 -5.31659 -141.266 19.0995 165.894 -148.19 57.2888 169.121 1.88378 -3.7889 -24.4364 -57.3315 30.123 -101.406 4.21717 3.83492 -28.6945 5.95563 -0.517282 -7.84987 0.0946371 1.00531 22.4171 -51.5289 -50.9983 103.112 -1.59775 5.25109 39.1698 0.552771 -0.00364909 6.10802 -22.3336 0.899009 88.6432 -4.24511 55.4136 -6.08657 0.534866 8.15096 0.366003 -7.19301 -31.4941 18.6352 -55.5098 8.49149 92.0188 135.746 84.3092 -129.949 -5.27285 -3.38068 0.895316 -11.1741 27.1051 4.64453 
-184.318 85.869 185.774 90.9766 39.4814 -1.40776 -70.1915 0 88.8779 125.454 72.9841 -39.1859 14.4643 25.0809 -5.925 -140.474 18.176 167.336 -149.561 56.1821 168.067 1.99886 -2.99019 -24.6107 -56.7853 27.2788 -103.972 4.55758 4.84349 -26.4408 5.92348 -0.516191 -7.87911 0.148579 0.458418 22.4268 -48.6189 -54.0178 102.047 0.29238 3.25266 36.7535 1.25433 0.033358 5.62882 -26.1295 0.957942 95.0363 -4.61774 58.4549 -3.55415 -0.00930306 7.85456 0.448798 -6.31523 -23.6169 12.9484 -54.4131 10.4455 96.5648 161.738 78.4649 -165.557 -5.92689 0.517992 0.87899 6.47271 6.22945 -20.256 
-173.172 84.3346 172.98 96.2333 43.582 -4.74654 -70.1915 0 88.8779 124.624 68.6896 -39.4177 11.185 21.9412 -6.15163 -139.544 17.1305 167.204 -148.288 54.8452 167.186 2.10856 -2.19445 -24.6827 -56.8545 23.2325 -109.033 5.00767 6.3959 -23.8007 5.71119 -0.456 -7.08241 0.133338 0.43117 24.4928 -48.4885 -57.1333 96.781 1.24239 2.3798 32.9863 2.00765 0.0480598 3.58379 -31.9601 -3.25722 96.1656 -8.48226 71.0222 4.20536 13.0225 20.3785 -2.49562 -9.9909 -41.8759 8.69316 -48.4511 8.76961 94.5451 167.21 71.6864 -171.308 -7.00647 -5.7349 1.08053 8.96228 2.96996 -25.4432 
-162.96 82.7038 161.169 96.1131 47.3073 -8.82594 -70.1915 0 88.8779 115.163 68.0924 -35.0079 10.2405 20.2914 -5.41994 -143.061 17.0171 168.35 -148.891 54.5526 168.218 2.36323 -1.63718 -27.0542 -65.2506 19.1169 -116.476 4.80116 15.3385 -18.9951 6.15666 -0.432026 -6.05765 0.246976 -0.540681 26.3223 -49.9484 -58.8354 93.2912 1.67496 2.35744 26.9352 2.82781 0.0231917 0.821589 -34.6655 -12.2038 95.5131 -26.3693 82.6129 23.6232 7.76953 7.81971 -1.01143 -9.26942 -38.7906 8.94781 -34.4629 3.36819 96.9134 166.94 68.6598 -164.585 -7.67985 -9.17417 1.14517 7.7268 -6.54197 -17.3184 
-152.256 83.4997 149.845 96.7371 46.3507 -7.25202 -70.1915 0 88.8779 117.22 67.0003 -35.078 8.3888 20.0673 -4.4861 -145.042 16.7352 170.119 -149.381 53.8095 166.736 2.20203 -2.18005 -25.9635 -70.8044 24.5644 -120.712 6.92147 18.5012 -19.7567 7.51614 -0.571599 -6.73624 0.214431 -0.299271 26.4804 -53.7172 -61.0936 87.9235 0.859983 -0.475427 20.6783 1.45419 0.0062075 0.43248 -45.5782 -7.32359 96.9357 -49.4639 85.0773 42.9488 13.3566 16.1692 -2.41387 -15.7357 -56.757 3.15247 -25.3197 6.07164 94.977 155.952 79.287 -149.843 -7.16619 -7.2388 1.10582 8.6945 -14.6206 -14.3868 
-141.708 85.5901 139.565 97.225 46.3446 -3.09565 -70.1915 0 88.8779 117.336 66.1329 -32.6504 8.11192 18.618 -1.07264 -146.917 16.1177 172.718 -149.712 52.7843 166.267 2.30785 -1.57905 -26.2203 -68.4561 27.2662 -123.958 6.31127 7.72228 -28.2266 8.30897 -0.644507 -6.92024 -0.00975247 1.41263 26.1094 -55.0081 -63.1813 83.3865 1.11685 -1.30532 20.6231 -0.827382 -0.0100933 0.47306 -52.1911 0.465312 93.9928 -122.13 84.5133 107.32 6.02747 4.33516 -0.753633 -8.80034 -34.9641 5.41238 -23.6622 8.25736 89.0361 12.5954 76.9224 -9.11504 -6.79277 -4.80199 1.05358 9.08919 -17.9634 -12.3974 
-132.314 87.2555 128.804 97.9492 50.1545 -1.83064 -70.1915 0 88.8779 114.696 63.9653 -29.5068 9.13795 15.9905 0.686477 -148.824 15.3611 173.265 -148.626 51.421 164.256 2.36958 -0.80993 -25.623 -66.873 29.3321 -124.095 5.96106 4.22693 -43.2145 5.19243 -0.410638 -6.97269 -0.101082 2.14422 25.9071 -39.317 -63.7602 95.9178 -0.0042756 4.40313 22.2768 -0.925469 -0.0147874 0.767072 -54.616 -0.479223 87.46 -135.6 83.5534 124.314 4.1966 4.73157 -0.451296 -5.80024 -21.0402 9.9535 -27.285 3.61618 82.7378 3.21264 55.1795 0.967688 -4.62374 -0.711114 0.752392 3.94943 -12.3887 1.22287 
